<svg width="34" height="637" viewBox="0 0 34 637" fill="none" xmlns="http://www.w3.org/2000/svg">
<rect y="46.625" width="34" height="34" rx="17" fill="#E94C80"/>
<path d="M22.3327 59.625L14.9993 66.9583L11.666 63.625" stroke="white" stroke-width="3" stroke-linecap="round" stroke-linejoin="round"/>
<path d="M17 127.25L17 80.625" stroke="#E94C80" stroke-width="6"/>
<path d="M17 173.875L17 127.25" stroke="#E94C80" stroke-width="6"/>
<rect y="173.875" width="34" height="34" rx="17" fill="#E94C80"/>
<path d="M22.3327 186.875L14.9993 194.208L11.666 190.875" stroke="white" stroke-width="3" stroke-linecap="round" stroke-linejoin="round"/>
<path d="M17 254.5L17 207.875" stroke="#E94C80" stroke-width="6"/>
<path d="M17 301.125L17 254.5" stroke="#E94C80" stroke-width="6"/>
<rect y="301.125" width="34" height="34" rx="17" fill="#E94C80"/>
<path d="M22.3327 314.125L14.9993 321.458L11.666 318.125" stroke="white" stroke-width="3" stroke-linecap="round" stroke-linejoin="round"/>
<path d="M17 381.75L17 335.125" stroke="#E94C80" stroke-width="6"/>
<path d="M17 428.375L17 381.75" stroke="#E94C80" stroke-width="6"/>
<rect x="1" y="429.375" width="32" height="32" rx="16" fill="#F1F3F5"/>
<rect x="1" y="429.375" width="32" height="32" rx="16" stroke="#E94C80" stroke-width="2"/>
<path d="M19.7012 443.225C19.7012 443.619 19.6191 443.961 19.4551 444.25C19.291 444.539 19.0684 444.775 18.7871 444.959C18.5098 445.143 18.1973 445.277 17.8496 445.363V445.398C18.5371 445.484 19.0586 445.695 19.4141 446.031C19.7734 446.367 19.9531 446.816 19.9531 447.379C19.9531 447.879 19.8301 448.326 19.584 448.721C19.3418 449.115 18.9668 449.426 18.459 449.652C17.9512 449.879 17.2969 449.992 16.4961 449.992C16.0234 449.992 15.582 449.953 15.1719 449.875C14.7656 449.801 14.3828 449.686 14.0234 449.529V447.988C14.3906 448.176 14.7754 448.318 15.1777 448.416C15.5801 448.51 15.9551 448.557 16.3027 448.557C16.9512 448.557 17.4043 448.445 17.6621 448.223C17.9238 447.996 18.0547 447.68 18.0547 447.273C18.0547 447.035 17.9941 446.834 17.873 446.67C17.752 446.506 17.541 446.381 17.2402 446.295C16.9434 446.209 16.5273 446.166 15.9922 446.166H15.3418V444.777H16.0039C16.5312 444.777 16.9316 444.729 17.2051 444.631C17.4824 444.529 17.6699 444.393 17.7676 444.221C17.8691 444.045 17.9199 443.846 17.9199 443.623C17.9199 443.318 17.8262 443.08 17.6387 442.908C17.4512 442.736 17.1387 442.65 16.7012 442.65C16.4277 442.65 16.1777 442.686 15.9512 442.756C15.7285 442.822 15.5273 442.904 15.3477 443.002C15.168 443.096 15.0098 443.188 14.873 443.277L14.0352 442.029C14.3711 441.787 14.7637 441.586 15.2129 441.426C15.666 441.266 16.2051 441.186 16.8301 441.186C17.7129 441.186 18.4121 441.363 18.9277 441.719C19.4434 442.074 19.7012 442.576 19.7012 443.225Z" fill="#495057"/>
<path d="M17 509L17 462.375" stroke="#F1F3F5" stroke-width="6"/>
<path d="M17 555.625L17 509" stroke="#F1F3F5" stroke-width="6"/>
<rect y="555.625" width="34" height="34" rx="17" fill="#F1F3F5"/>
<path d="M20.2285 575.35H19.1973V577.125H17.4277V575.35H13.7715V574.09L17.5273 568.559H19.1973V573.943H20.2285V575.35ZM17.4277 573.943V572.49C17.4277 572.354 17.4297 572.191 17.4336 572.004C17.4414 571.816 17.4492 571.629 17.457 571.441C17.4648 571.254 17.4727 571.088 17.4805 570.943C17.4922 570.795 17.5 570.691 17.5039 570.633H17.457C17.3828 570.793 17.3047 570.949 17.2227 571.102C17.1406 571.25 17.0449 571.406 16.9355 571.57L15.3652 573.943H17.4277Z" fill="#495057"/>
</svg>
