<svg width="74" height="74" viewBox="0 0 74 74" fill="none" xmlns="http://www.w3.org/2000/svg">
<rect width="74" height="74" rx="37" fill="#E7E0EC" fill-opacity="0.6"/>
<path d="M25 40C26.6569 40 28 38.6569 28 37C28 35.3432 26.6569 34 25 34C23.3432 34 22 35.3432 22 37C22 38.6569 23.3432 40 25 40Z" fill="#EA427F"/>
<path d="M37 40C38.6569 40 40 38.6569 40 37C40 35.3432 38.6569 34 37 34C35.3432 34 34 35.3432 34 37C34 38.6569 35.3432 40 37 40Z" fill="#EA427F"/>
<path d="M49 40C50.6569 40 52 38.6569 52 37C52 35.3432 50.6569 34 49 34C47.3432 34 46 35.3432 46 37C46 38.6569 47.3432 40 49 40Z" fill="#EA427F"/>
</svg>
