<svg width="31" height="28" viewBox="0 0 31 28" fill="none" xmlns="http://www.w3.org/2000/svg">
<path d="M0.363636 0.0587597C0.29697 0.0914021 0.187879 0.182806 0.121212 0.261152C0.00606061 0.398258 0 0.496193 0 2.91839V5.43199L0.2 5.62132C0.387879 5.7976 0.424242 5.81066 0.939394 5.81066H1.48485V7.68443C1.48485 8.72905 1.51515 9.6692 1.54545 9.79977C1.64848 10.2046 1.84848 10.3417 2.3697 10.3678L2.81818 10.3939V11.889V13.3841H1.69091H0.563636L0.387879 13.5734L0.212121 13.7628V20.6246V27.4864L0.387879 27.6953L0.563636 27.9107L8.75151 27.9303C17.6485 27.9434 17.1879 27.963 17.3758 27.5974C17.4121 27.519 17.4606 27.2448 17.4788 26.9902L17.5152 26.5201L17.9515 26.8008C18.8182 27.3493 20.0606 27.7867 21.2121 27.9499C21.9455 28.0544 23.3455 27.9891 24.103 27.8128C25.7455 27.4407 27.1636 26.6311 28.3818 25.3645C29.6545 24.0522 30.4424 22.5898 30.8788 20.7682C30.9879 20.3112 31 20.0435 31 18.4766C31 16.5571 30.9697 16.3155 30.6 15.1991C29.7091 12.5419 27.6182 10.3482 25.0909 9.43416C23.9636 9.02284 23.7212 8.99673 21.1394 8.96408L18.7636 8.93144L18.7455 6.94668L18.7273 4.96191L18.5576 4.78563C18.4061 4.61588 18.3455 4.60283 17.8303 4.57018L17.2727 4.53754L17.2424 2.46137L17.2121 0.378672L17.0121 0.189335L16.8182 0L8.64848 0.00652885C4.15758 0.00652885 0.430303 0.0326443 0.363636 0.0587597ZM15.9091 2.90533V4.37432H8.60606H1.30303V2.90533V1.43634H8.60606H15.9091V2.90533ZM17.4727 7.45592L17.4848 8.9445H10.1515H2.81818V7.48857C2.81818 6.68552 2.83636 6.00653 2.86061 5.98694C2.87879 5.96082 6.17576 5.94777 10.1758 5.95429L17.4545 5.97388L17.4727 7.45592ZM17.0121 10.7073C16.4 11.1708 15.5394 12.0783 15.0727 12.7443L14.6788 13.3188H9.41212H4.15152V11.8498V10.3808H10.8H17.4424L17.0121 10.7073ZM23.6364 10.5441C25.9394 11.0598 27.8667 12.6463 28.8788 14.8531C29.4848 16.1784 29.703 17.2818 29.6485 18.7965C29.5879 20.6507 29.0242 22.2241 27.897 23.6931C26.4121 25.6322 23.9455 26.729 21.5818 26.5071C18.2303 26.1937 15.5636 23.654 14.8424 20.0957C14.697 19.3645 14.6667 17.9804 14.7818 17.2231C15.4 13.1752 18.6061 10.296 22.3636 10.407C22.8 10.42 23.3697 10.4853 23.6364 10.5441ZM13.9455 14.8335C13.703 15.4799 13.4303 16.6224 13.3333 17.4516L13.297 17.7584L7.40606 17.7454L1.51515 17.7258L1.49697 16.3221C1.49091 15.5517 1.49697 14.8857 1.50909 14.84C1.53333 14.7747 2.77576 14.7552 7.76364 14.7552C12.7152 14.7552 13.9758 14.7747 13.9455 14.8335ZM13.303 19.4624C13.303 19.9717 13.5939 21.2709 13.8788 22.0152C13.9212 22.1262 13.6 22.1327 7.70303 22.1327H1.48485V20.6637V19.1948H7.39394H13.303V19.4624ZM14.7758 23.7584C14.9273 24.0326 15.3879 24.6529 15.7576 25.0707L16.0788 25.4298L16.1152 26.0043L16.1576 26.5723L8.83636 26.5593L1.51515 26.5397L1.49697 25.136C1.49091 24.3656 1.49697 23.6997 1.50909 23.654C1.53333 23.5887 2.84242 23.5691 8.10909 23.5691H14.6727L14.7758 23.7584Z" fill="#EA417F"/>
<path d="M21.5585 13.2015C21.5161 13.2472 21.4858 13.4627 21.4858 13.7434V14.207L21.11 14.2918C20.304 14.4681 19.5464 15.0949 19.31 15.7674C19.2191 16.022 19.1828 16.2831 19.1828 16.6357C19.1888 17.8762 19.8555 18.5225 21.6555 19.0383C22.8494 19.3778 23.1706 19.5149 23.4252 19.7761C23.6434 20.0046 23.6676 20.0503 23.6676 20.3571C23.6676 20.6379 23.6373 20.7293 23.4858 20.9186C23.2131 21.2516 22.8434 21.3822 22.1525 21.3822C21.6555 21.3822 21.5282 21.356 21.2373 21.2124C20.9282 21.0557 20.5767 20.6901 20.5767 20.5203C20.5767 20.4877 20.5282 20.4159 20.4737 20.3571C20.3828 20.2853 20.2312 20.2723 19.6979 20.2984L19.0312 20.3375V20.664C19.0373 21.565 19.8737 22.4137 21.0312 22.6879L21.4858 22.7989V23.269C21.4858 23.5497 21.5161 23.7717 21.5585 23.8174C21.6555 23.9219 22.5282 23.9219 22.6252 23.8174C22.6676 23.7717 22.6979 23.5497 22.6979 23.269V22.7989L22.9585 22.7532C23.6797 22.6357 24.5222 22.1721 24.8373 21.7282C25.1525 21.2907 25.2676 20.9055 25.2676 20.2984C25.2676 19.8218 25.2434 19.6912 25.104 19.3713C24.7525 18.6139 24.1525 18.2287 22.6616 17.837C21.7161 17.5824 21.2676 17.393 21.0131 17.1449C20.7403 16.8707 20.6797 16.4137 20.8737 16.0807C21.1343 15.6303 21.9282 15.4213 22.5888 15.6303C23.0131 15.7608 23.2191 15.9371 23.3828 16.3158L23.5161 16.6161L24.207 16.6357C25.0009 16.6553 25.0858 16.6226 25.0252 16.2636C24.8737 15.3691 24.1161 14.5987 23.104 14.3049L22.7282 14.2004L22.6979 13.6781L22.6676 13.1558L22.1525 13.1362C21.8009 13.1232 21.6131 13.1428 21.5585 13.2015Z" fill="#EA417F"/>
</svg>
