<svg width="94" height="84" viewBox="0 0 94 84" fill="none" xmlns="http://www.w3.org/2000/svg">
<path d="M67.6199 41.6668L50.029 31.5002C48.1654 30.4244 45.832 30.4244 43.9684 31.5002L26.3623 41.6668C24.4987 42.7578 23.332 44.7729 23.332 46.9244V67.2426C23.332 69.3941 24.4987 71.4093 26.3623 72.5002L43.9684 82.6517C44.9078 83.182 45.9532 83.4547 46.9987 83.4547C48.0442 83.4547 49.1048 83.182 50.029 82.6517L67.6199 72.5002C69.4987 71.4093 70.6502 69.3941 70.6502 67.2426V46.9093C70.6654 44.7729 69.4987 42.7578 67.6199 41.6668ZM67.7563 67.2426C67.7563 68.3638 67.1502 69.4093 66.1654 69.985L48.5745 80.1365C47.5896 80.6971 46.3775 80.6971 45.4078 80.1365L27.8169 69.985C26.8472 69.4244 26.2411 68.3638 26.2411 67.2426V46.9093C26.2411 45.7881 26.8472 44.7426 27.8169 44.1668L45.4078 34.0153C45.8926 33.7275 46.4381 33.5911 46.9987 33.5911C47.5593 33.5911 48.0896 33.7275 48.5745 34.0153L66.1654 44.1668C67.1502 44.7426 67.7563 45.7881 67.7563 46.9093V67.2426Z" fill="#EA427F"/>
<path d="M46.9848 36.3032C45.606 36.3032 44.4242 36.7881 43.4848 37.7275C42.5454 38.6669 42.0605 39.8638 42.0605 41.2275V47.9547L43.2575 62.485C43.3333 63.4396 43.7272 64.2578 44.409 64.8638C45.0757 65.4547 45.9393 65.7578 46.9848 65.7578C48.0302 65.7578 48.8939 65.4396 49.5454 64.8335C50.1818 64.2275 50.5605 63.4244 50.6363 62.485L51.8484 47.8184V41.2123C51.8484 39.8487 51.3787 38.6669 50.4696 37.7275C49.5454 36.8032 48.3484 36.3032 46.9848 36.3032ZM47.7424 62.2881C47.7272 62.5608 47.6363 62.6669 47.5605 62.7426C47.4393 62.8638 47.1515 62.879 46.9848 62.879C46.6818 62.879 46.4696 62.8184 46.3484 62.7123C46.2727 62.6366 46.1818 62.5456 46.1666 62.2729L44.9696 47.8487V41.2426C44.9696 40.6517 45.1515 40.1972 45.5454 39.8032C45.9393 39.4093 46.3939 39.2275 46.9848 39.2275C47.5606 39.2275 48.0151 39.4093 48.3787 39.7881C48.7575 40.182 48.9393 40.6517 48.9393 41.2426V47.7426L47.7424 62.2881Z" fill="#EA427F"/>
<path d="M44.0139 67.7272C43.2109 68.5302 42.7715 69.5605 42.7715 70.6817C42.7715 71.8332 43.1957 72.8635 44.0139 73.6817C44.8169 74.4847 45.8472 74.9241 46.9685 74.9241C48.12 74.9241 49.1503 74.4999 49.9685 73.6817C50.7715 72.8787 51.2109 71.8332 51.2109 70.6817C51.2109 69.5605 50.7866 68.5453 49.9685 67.7272C48.3624 66.1211 45.6503 66.0908 44.0139 67.7272ZM47.9078 71.6211C47.3927 72.1363 46.62 72.1817 46.0745 71.6211C45.8169 71.3635 45.6957 71.0605 45.6957 70.6817C45.6957 70.3181 45.8169 70.0605 46.0897 69.7878C46.3472 69.515 46.6351 69.409 46.9836 69.409C47.3624 69.409 47.6503 69.5302 47.923 69.7878C48.1957 70.0605 48.3018 70.3332 48.3018 70.6817C48.3018 71.0605 48.1806 71.3484 47.9078 71.6211Z" fill="#EA427F"/>
<path d="M35.4844 9.27286C36.2875 9.27286 36.939 8.62135 36.939 7.81832C36.939 7.01528 36.2875 6.36377 35.4844 6.36377C26.9087 6.36377 19.9238 13.3032 19.9238 21.8486C19.9238 22.6516 20.5753 23.3032 21.3784 23.3032C22.1814 23.3032 22.8329 22.6516 22.8329 21.8486C22.8329 14.9092 28.4996 9.27286 35.4844 9.27286Z" fill="#EA427F"/>
<path d="M79.3177 25.9242C78.8177 17.8181 72.0601 11.3787 63.8176 11.3787C60.7873 11.3787 57.8328 12.2727 55.3177 13.9242C52.0752 5.93935 44.1964 0.54541 35.4843 0.54541C24.0146 0.54541 14.6358 9.62117 14.1207 20.9545C5.89341 22.8636 0.0449219 30.1515 0.0449219 38.7121C0.0449219 48.7727 8.22674 56.9545 18.2873 56.9545H18.9692C19.7722 56.9545 20.4237 56.303 20.4237 55.5C20.4237 54.6969 19.7722 54.0454 18.9692 54.0454H18.2873C9.8328 54.0454 2.95401 47.1666 2.95401 38.7121C2.95401 31.1666 8.34795 24.803 15.8025 23.5757C16.4995 23.4545 17.0146 22.8484 17.0146 22.1363V21.909C17.0146 11.7272 25.3025 3.43935 35.4843 3.43935C43.6207 3.43935 50.8934 8.87875 53.1964 16.6818C53.3328 17.1515 53.7116 17.5303 54.1813 17.6666C54.6661 17.803 55.1661 17.6969 55.5449 17.3636C57.848 15.3636 60.7722 14.2727 63.8176 14.2727C70.7722 14.2727 76.4389 19.9394 76.4389 26.8939L76.4237 27.3181C76.4086 27.7272 76.5601 28.106 76.848 28.3939C77.1358 28.6818 77.5146 28.8333 77.9237 28.8181C78.0904 28.8181 78.2419 28.803 78.4086 28.803C85.3631 28.803 91.0298 34.4697 91.0298 41.4242C91.0298 48.3787 85.3631 54.0454 78.4086 54.0454H75.0298C74.2267 54.0454 73.5752 54.6969 73.5752 55.5C73.5752 56.303 74.2267 56.9545 75.0298 56.9545H78.4237C86.9843 56.9545 93.954 49.9848 93.954 41.4242C93.954 33.1666 87.4692 26.3787 79.3177 25.9242Z" fill="#EA427F"/>
</svg>
