<svg width="74" height="74" viewBox="0 0 74 74" fill="none" xmlns="http://www.w3.org/2000/svg">
<rect width="74" height="74" rx="37" fill="#E7E0EC" fill-opacity="0.6"/>
<path d="M24.5722 31.8114C23.6436 30.8895 22.3534 30.7644 21.2051 31.4842C20.9948 31.6161 20.8071 31.7734 20.6467 31.9505C20.4861 31.7734 20.2984 31.6161 20.0882 31.4842C18.9399 30.7643 17.6497 30.8897 16.7211 31.8113C16.1947 32.3338 15.8899 33.0705 15.8849 33.8323C15.8674 36.53 18.1084 37.8431 19.9091 38.8982C20.023 38.9649 20.1362 39.0312 20.2483 39.0976C20.3711 39.1702 20.5088 39.2065 20.6466 39.2065C20.7844 39.2065 20.9221 39.1702 21.045 39.0975C21.157 39.0312 21.2702 38.965 21.3841 38.8982C23.1848 37.8431 25.4259 36.5301 25.4083 33.8323C25.4034 33.0705 25.0986 32.3339 24.5722 31.8114ZM20.7918 37.8872C20.7433 37.9156 20.6949 37.944 20.6467 37.9722C20.5985 37.944 20.5501 37.9156 20.5017 37.8872C18.8016 36.8911 17.0437 35.8611 17.0568 33.8399C17.0598 33.3854 17.2384 32.9491 17.5467 32.643C17.888 32.3042 18.2395 32.19 18.5582 32.19C18.9263 32.19 19.2509 32.3423 19.4658 32.4771C19.7473 32.6537 19.9522 32.9049 20.0429 33.1846C20.1279 33.447 20.3706 33.6234 20.6467 33.6234C20.9229 33.6234 21.1656 33.447 21.2505 33.1848C21.3412 32.9049 21.5462 32.6536 21.8277 32.4771C22.2288 32.2257 23.0113 31.913 23.7468 32.643C24.0551 32.9491 24.2337 33.3854 24.2366 33.8399C24.2497 35.8611 22.4918 36.8911 20.7918 37.8872Z" fill="#EA427F"/>
<path d="M45.9545 35.5714C45.5712 35.5568 45.2005 35.6435 44.8719 35.8178C44.713 34.807 43.8561 34.0062 42.8258 33.9696C42.4074 33.9535 42.0036 34.0584 41.6533 34.2665C41.3727 33.4322 40.6131 32.8287 39.6971 32.7961C39.3239 32.7832 38.9629 32.8637 38.6408 33.0288V32.0922C40.1128 30.7803 41.2448 29.1804 41.5502 27.0468C41.6004 27.0763 41.6511 27.106 41.7009 27.1354C41.8328 27.2134 41.9807 27.2524 42.1285 27.2524C42.2764 27.2524 42.4244 27.2134 42.5563 27.1353C42.7014 27.0496 42.848 26.9636 42.9956 26.8772C45.4055 25.4651 48.137 23.8647 48.115 20.475C48.1089 19.5349 47.7332 18.6262 47.0844 17.9821C45.9259 16.8323 44.3774 16.6827 42.9421 17.5829C42.6257 17.7813 42.3509 18.0266 42.1285 18.3052C41.9061 18.0266 41.6314 17.7813 41.3151 17.5829C39.8798 16.6829 38.3313 16.8323 37.1728 17.9821C36.5239 18.6262 36.1483 19.5348 36.1421 20.475C36.1411 20.645 36.1481 20.8097 36.1609 20.9706C35.5435 21.088 34.9213 21.3354 34.3131 21.7167C33.7496 22.0701 33.28 22.5282 32.935 23.0525C32.59 22.5282 32.1205 22.0702 31.5569 21.7167C29.5249 20.4427 27.3349 20.6516 25.6986 22.2761C24.7788 23.1891 24.2462 24.4785 24.2375 25.8136C24.2244 27.841 24.8992 29.5921 26.3007 31.167C26.5158 31.4087 26.8861 31.4304 27.1278 31.2151C27.3695 31 27.3912 30.6297 27.176 30.3879C25.976 29.0394 25.3981 27.5456 25.4093 25.8211C25.4159 24.7933 25.8224 23.8043 26.5241 23.1076C27.7654 21.8755 29.3728 21.7302 30.9344 22.7095C31.5908 23.1212 32.0714 23.715 32.2875 24.3815C32.3787 24.6628 32.6389 24.8517 32.935 24.8517C33.2312 24.8517 33.4914 24.6628 33.5826 24.3815C33.7987 23.715 34.2792 23.1211 34.9357 22.7095C36.4972 21.7305 38.1047 21.8754 39.3459 23.1076C40.0477 23.8042 40.4541 24.7933 40.4608 25.8211C40.4733 27.7416 39.7524 29.2196 38.6409 30.4488V29.0101C38.6409 28.4213 38.4075 27.8718 37.9837 27.4627C37.56 27.0539 37.0027 26.8415 36.4128 26.8613C35.27 26.9019 34.3404 27.8827 34.3404 29.0458L34.3269 33.6728C34.0504 33.8371 33.7732 34.0005 33.4962 34.1628C33.308 34.273 33.1208 34.3827 32.9351 34.4923C32.749 34.3826 32.5614 34.2725 32.3727 34.1621C31.2667 33.514 30.123 32.8439 29.0983 32.0931C28.8373 31.902 28.4706 31.9585 28.2794 32.2196C28.0882 32.4806 28.1448 32.8472 28.4058 33.0385C29.4789 33.8246 30.6489 34.5101 31.7804 35.173C32.0027 35.3033 32.2237 35.4327 32.4424 35.562C32.5943 35.6519 32.7648 35.6969 32.9352 35.6969C33.1056 35.6969 33.2759 35.652 33.4279 35.562C33.6461 35.4331 33.8668 35.3037 34.0886 35.1737C34.1663 35.1282 34.2448 35.0821 34.3229 35.0362L34.3076 40.2828L33.9725 39.2621C33.9675 39.2469 33.9618 39.2319 33.9557 39.2173C33.5608 38.2808 32.649 37.6756 31.6327 37.6756C31.2636 37.6756 30.9056 37.8287 30.6506 38.0955C30.3955 38.3623 30.2588 38.7268 30.2755 39.0955L30.4704 43.4112C30.5328 44.7918 31.082 46.1126 32.017 47.1304L34.2388 49.5487C34.2468 49.5574 34.2551 49.5659 34.2636 49.5741C34.5576 49.8575 34.7262 50.2542 34.7262 50.6626V51.5501H34.5897C33.9427 51.5501 33.4162 52.0765 33.4162 52.7235V55.8264C33.4162 56.4733 33.9426 56.9998 34.5897 56.9998H37.0522C37.3758 56.9998 37.6381 56.7375 37.6381 56.4139C37.6381 56.0902 37.3758 55.828 37.0522 55.828L34.588 55.8264L34.5897 52.722L45.3865 52.7236L45.3849 55.828H39.8026C39.479 55.828 39.2167 56.0902 39.2167 56.4139C39.2167 56.7375 39.479 56.9998 39.8026 56.9998H45.3849C46.0319 56.9998 46.5583 56.4734 46.5583 55.8264V52.7235C46.5583 52.0765 46.0319 51.5501 45.3849 51.5501H45.2397V51.0983C45.2397 50.143 45.5305 49.2252 46.0805 48.4443L46.9724 47.1776C47.6623 46.198 48.027 45.047 48.027 43.8489V37.7579C48.0269 36.5733 47.1166 35.6129 45.9545 35.5714ZM40.1713 22.276C39.3373 21.4482 38.3594 20.9889 37.332 20.9052C37.3197 20.768 37.3129 20.6275 37.3139 20.4826C37.318 19.8496 37.5674 19.2413 37.9982 18.8138C38.4271 18.388 38.9151 18.1738 39.4316 18.1738C39.8392 18.1738 40.2647 18.3074 40.6925 18.5756C41.0906 18.8254 41.3814 19.1832 41.5111 19.5833C41.598 19.8515 41.8461 20.0317 42.1283 20.0318H42.1285C42.4106 20.0318 42.6587 19.8516 42.7459 19.5833C42.8756 19.1832 43.1663 18.8254 43.5645 18.5757C44.5345 17.9674 45.4914 18.0521 46.2588 18.8139C46.6896 19.2415 46.9391 19.8497 46.9431 20.4827C46.9608 23.1958 44.6438 24.5533 42.4031 25.8662C42.3112 25.92 42.2195 25.9737 42.1285 26.0273C42.0374 25.9737 41.9457 25.9201 41.8538 25.8662C41.7792 25.8225 41.7046 25.7785 41.6299 25.7347C41.6012 24.4278 41.0731 23.171 40.1713 22.276ZM46.8551 43.8491C46.8551 44.8044 46.5643 45.7222 46.0144 46.5032L45.1224 47.7699C44.4325 48.7493 44.0679 49.9004 44.0679 51.0985V51.5503H35.8979V50.6628C35.8979 49.9443 35.6037 49.2459 35.0902 48.7439L32.8798 46.3379C32.1308 45.5225 31.6908 44.4645 31.6409 43.3585L31.446 39.0428C31.4429 38.9734 31.4769 38.927 31.4975 38.9054C31.5182 38.8838 31.5631 38.8477 31.6326 38.8477C32.1693 38.8477 32.6514 39.1629 32.8671 39.6526L33.1941 40.6486C33.3773 41.2064 33.95 41.5435 34.5267 41.4326C35.0748 41.3273 35.474 40.8457 35.4758 40.2875L35.5121 29.0478C35.5121 28.5064 35.9348 28.0509 36.4544 28.0325C36.7231 28.0237 36.9772 28.1201 37.17 28.3061C37.3628 28.4923 37.4691 28.7423 37.4691 29.0103L37.4716 40.4113C37.4716 40.735 37.7339 40.9972 38.0575 40.9972C38.3811 40.9972 38.6434 40.735 38.6434 40.4113V34.8943C38.656 34.6457 38.7594 34.4152 38.9399 34.2409C39.1326 34.0548 39.3872 33.9593 39.6555 33.9672C40.1751 33.9857 40.5978 34.4412 40.5978 34.9825L40.5992 40.4113C40.5992 40.735 40.8615 40.9972 41.1851 40.9972C41.5087 40.9972 41.771 40.735 41.771 40.4113V36.0908C41.7781 35.8334 41.8825 35.594 42.0688 35.4144C42.2615 35.2284 42.5162 35.1321 42.7843 35.1407C43.3038 35.1592 43.7266 35.6146 43.7266 36.1561L43.7212 40.4114C43.7212 40.735 43.9835 40.9973 44.3071 40.9973C44.6306 40.9973 44.893 40.735 44.893 40.4114C44.893 40.4114 44.8983 37.746 44.8983 37.7204C44.8983 37.4524 45.0046 37.2024 45.1975 37.0162C45.3902 36.8302 45.6448 36.7323 45.913 36.7426C46.4325 36.7611 46.8552 37.2166 46.8552 37.758V43.8491H46.8551Z" fill="#EA427F"/>
</svg>
