<svg width="24" height="22" viewBox="0 0 24 22" fill="none" xmlns="http://www.w3.org/2000/svg">
<path d="M17.3571 0.716797C15.1446 0.716797 13.2075 1.66823 12 3.27644C10.7925 1.66823 8.85536 0.716797 6.64286 0.716797C4.88167 0.718782 3.19319 1.41929 1.94784 2.66464C0.702493 3.90998 0.00198508 5.59847 0 7.35965C0 14.8597 11.1204 20.9304 11.5939 21.1811C11.7187 21.2482 11.8583 21.2834 12 21.2834C12.1417 21.2834 12.2813 21.2482 12.4061 21.1811C12.8796 20.9304 24 14.8597 24 7.35965C23.998 5.59847 23.2975 3.90998 22.0522 2.66464C20.8068 1.41929 19.1183 0.718782 17.3571 0.716797ZM12 19.4454C10.0436 18.3054 1.71429 13.1122 1.71429 7.35965C1.71599 6.05304 2.23579 4.80042 3.15971 3.87651C4.08363 2.95259 5.33624 2.43278 6.64286 2.43108C8.72679 2.43108 10.4764 3.54108 11.2071 5.32394C11.2717 5.48115 11.3816 5.61561 11.5228 5.71024C11.6639 5.80487 11.83 5.8554 12 5.8554C12.17 5.8554 12.3361 5.80487 12.4773 5.71024C12.6184 5.61561 12.7283 5.48115 12.7929 5.32394C13.5236 3.53787 15.2732 2.43108 17.3571 2.43108C18.6638 2.43278 19.9164 2.95259 20.8403 3.87651C21.7642 4.80042 22.284 6.05304 22.2857 7.35965C22.2857 13.1036 13.9543 18.3043 12 19.4454Z" fill="white"/>
</svg>
