<svg width="41" height="40" viewBox="0 0 41 40" fill="none" xmlns="http://www.w3.org/2000/svg">
<rect width="40.0849" height="40" rx="12" fill="#F4F4F4"/>
<path d="M15.8333 25.8334V19.1667H13.25V19.0667C13.9 19.0667 14.2583 18.9501 14.7417 18.5001L20 13.6334L25.2583 18.5001C25.7417 18.9501 26.1 19.0667 26.75 19.0667V19.1667H24.1667V25.8334H22.5V20.8334H20.8333V25.8334H15.8333ZM17.5 24.1667H19.1667V21.6667H17.5V24.1667ZM15 27.5001H25C25.4583 27.5001 25.8333 27.1251 25.8333 26.6667V20.8334H26.6667C27.125 20.8334 27.5 20.4584 27.5 20.0001V18.6667C27.5 18.4334 27.4083 18.2167 27.2333 18.0584L20.5667 11.8917C20.25 11.5917 19.7583 11.5917 19.4333 11.8917L12.7667 18.0584C12.6 18.2167 12.5 18.4334 12.5 18.6667V20.0001C12.5 20.4917 12.9 20.8334 13.3333 20.8334H14.1667V26.6667C14.1667 27.1251 14.5417 27.5001 15 27.5001Z" fill="#EA427F"/>
</svg>
