<svg width="74" height="74" viewBox="0 0 74 74" fill="none" xmlns="http://www.w3.org/2000/svg">
<rect width="74" height="74" rx="37" fill="#E7E0EC" fill-opacity="0.6"/>
<g clip-path="url(#clip0_3263_2979)">
<path d="M30.9996 32.3335C30.6309 32.3335 30.3329 32.6322 30.3329 33.0001V37.2601L27.5709 32.6568C27.5689 32.6535 27.5666 32.6507 27.5646 32.6474C27.5568 32.6348 27.5486 32.6226 27.54 32.6106C27.535 32.6037 27.53 32.597 27.5249 32.5904C27.5171 32.5806 27.5092 32.571 27.501 32.5615C27.4943 32.5538 27.4875 32.5462 27.4804 32.5389C27.4731 32.5312 27.4654 32.5238 27.4577 32.5165C27.4494 32.5086 27.4411 32.5009 27.4325 32.4935C27.425 32.4871 27.4172 32.481 27.4095 32.4749C27.4004 32.4678 27.3911 32.4608 27.3817 32.4541C27.3733 32.4483 27.3647 32.4428 27.3561 32.4373C27.3469 32.4315 27.3376 32.4257 27.3282 32.4203C27.3185 32.4148 27.3086 32.4097 27.2986 32.4047C27.2897 32.4003 27.2807 32.3958 27.2717 32.3918C27.2609 32.3869 27.2499 32.3826 27.2388 32.3783C27.2299 32.3749 27.221 32.3715 27.2119 32.3685C27.2007 32.3647 27.1893 32.3614 27.1779 32.3583C27.1682 32.3556 27.1586 32.353 27.1488 32.3508C27.1381 32.3483 27.1273 32.3462 27.1164 32.3443C27.1051 32.3422 27.0938 32.3405 27.0825 32.3391C27.0729 32.3379 27.0632 32.3369 27.0535 32.3362C27.0404 32.3351 27.0273 32.3344 27.0141 32.3342C27.0093 32.3341 27.0045 32.3335 26.9996 32.3335C26.9957 32.3335 26.9918 32.334 26.9879 32.3341C26.9746 32.3344 26.9613 32.3351 26.9479 32.3362C26.9386 32.3369 26.9293 32.3376 26.92 32.3387C26.9084 32.3401 26.8969 32.342 26.8854 32.344C26.8744 32.3458 26.8635 32.3479 26.8527 32.3503C26.8435 32.3524 26.8344 32.3548 26.8252 32.3573C26.8123 32.3608 26.7995 32.3645 26.787 32.3687C26.78 32.3711 26.7731 32.3737 26.7661 32.3764C26.7518 32.3818 26.7376 32.3875 26.7238 32.3937C26.7182 32.3963 26.7126 32.399 26.707 32.4019C26.6924 32.409 26.6781 32.4166 26.6641 32.4247C26.6616 32.4262 26.6589 32.4273 26.6564 32.4289C26.6532 32.4308 26.6504 32.433 26.6474 32.4349C26.6346 32.4429 26.622 32.4513 26.6098 32.4601C26.6032 32.4649 26.5967 32.4697 26.5903 32.4747C26.5801 32.4826 26.5703 32.4908 26.5606 32.4994C26.5532 32.5058 26.5458 32.5125 26.5387 32.5192C26.5307 32.5269 26.523 32.5348 26.5154 32.5429C26.5079 32.5508 26.5004 32.5588 26.4933 32.5671C26.4865 32.575 26.4801 32.5832 26.4737 32.5914C26.4669 32.6001 26.4603 32.6088 26.4539 32.6178C26.4477 32.6267 26.4418 32.6358 26.4361 32.645C26.4306 32.6537 26.4251 32.6623 26.4201 32.6712C26.4143 32.6815 26.4089 32.6921 26.4036 32.7027C26.3994 32.711 26.3954 32.7192 26.3915 32.7276C26.3864 32.7391 26.3818 32.7508 26.3772 32.7626C26.3741 32.7708 26.371 32.779 26.3682 32.7872C26.3643 32.7991 26.3607 32.8112 26.3574 32.8233C26.3549 32.8323 26.3525 32.8413 26.3504 32.8504C26.3479 32.8616 26.3456 32.873 26.3436 32.8845C26.3418 32.8953 26.34 32.9061 26.3387 32.9169C26.3375 32.9269 26.3364 32.9368 26.3357 32.9469C26.3346 32.9597 26.334 32.9726 26.3337 32.9856C26.3336 32.9904 26.333 32.9952 26.333 33.0001V39.6667C26.333 40.0347 26.631 40.3333 26.9996 40.3333C27.3683 40.3333 27.6663 40.0347 27.6663 39.6667V35.4067L30.4283 40.0101C30.4298 40.0125 30.4316 40.0145 30.4331 40.0169C30.4457 40.0373 30.4593 40.0571 30.474 40.0759C30.4766 40.0793 30.479 40.0829 30.4816 40.0862C30.4979 40.1062 30.5153 40.1252 30.5337 40.1433C30.5393 40.1487 30.5453 40.1537 30.5511 40.159C30.5646 40.1715 30.5786 40.1833 30.5932 40.1945C30.6 40.1997 30.6068 40.205 30.6139 40.21C30.6316 40.2226 30.6499 40.2344 30.6689 40.2452C30.6719 40.2469 30.6748 40.249 30.6779 40.2507C30.7009 40.2634 30.7249 40.2746 30.7495 40.2846C30.7532 40.2862 30.7571 40.2873 30.761 40.2888C30.7817 40.2968 30.8028 40.3037 30.8244 40.3095C30.8303 40.3111 30.8361 40.3126 30.8419 40.314C30.8622 40.319 30.8829 40.3229 30.9039 40.3259C30.9097 40.3268 30.9154 40.3279 30.9211 40.3286C30.947 40.3316 30.9731 40.3336 30.9997 40.3336C30.9999 40.3336 31 40.3336 31.0001 40.3336H31.0004C31.0011 40.3336 31.0018 40.3334 31.0025 40.3334C31.0288 40.3333 31.0545 40.3313 31.0799 40.3283C31.0874 40.3273 31.0948 40.326 31.1023 40.3248C31.1229 40.3216 31.143 40.3176 31.1629 40.3126C31.1696 40.3109 31.1761 40.3094 31.1827 40.3075C31.2375 40.2919 31.2891 40.2694 31.3371 40.2412C31.3391 40.2401 31.3411 40.2394 31.3431 40.2382C31.3462 40.2363 31.349 40.234 31.3521 40.2322C31.3649 40.2241 31.3775 40.2158 31.3896 40.2069C31.3963 40.2022 31.4028 40.1973 31.4092 40.1923C31.4193 40.1844 31.4292 40.1762 31.4389 40.1677C31.4463 40.1612 31.4536 40.1546 31.4607 40.1478C31.4687 40.1401 31.4764 40.1322 31.484 40.1242C31.4915 40.1162 31.4989 40.1083 31.5061 40.1C31.5129 40.0921 31.5193 40.0839 31.5257 40.0757C31.5325 40.067 31.5391 40.0583 31.5454 40.0493C31.5516 40.0404 31.5575 40.0312 31.5632 40.022C31.5687 40.0133 31.5741 40.0047 31.5792 39.9958C31.585 39.9854 31.5904 39.9749 31.5957 39.9643C31.5999 39.956 31.6039 39.9478 31.6078 39.9394C31.6129 39.9279 31.6175 39.9162 31.6221 39.9044C31.6252 39.8962 31.6283 39.8879 31.6311 39.8797C31.635 39.8678 31.6386 39.8558 31.6419 39.8437C31.6444 39.8347 31.6468 39.8256 31.6489 39.8165C31.6514 39.8052 31.6536 39.7939 31.6557 39.7824C31.6575 39.7716 31.6593 39.7608 31.6606 39.7499C31.6618 39.74 31.6629 39.7301 31.6636 39.72C31.6646 39.7071 31.6653 39.6942 31.6656 39.6812C31.6657 39.6764 31.6663 39.6716 31.6663 39.6668V33.0001C31.6662 32.6322 31.3682 32.3335 30.9996 32.3335Z" fill="#EA427F"/>
<path d="M42.8811 40.0453C42.8972 40.0217 42.9118 39.9973 42.9248 39.972C42.9289 39.9638 42.9328 39.9556 42.9366 39.9473C42.9494 39.9198 42.9609 39.8917 42.9699 39.8626C42.9704 39.8611 42.9711 39.8599 42.9715 39.8584L44.3328 35.3206L45.6942 39.8584C45.6946 39.8599 45.6954 39.8611 45.6958 39.8626C45.7048 39.8917 45.7163 39.9198 45.729 39.9473C45.7328 39.9556 45.7367 39.9639 45.7409 39.972C45.7539 39.9974 45.7685 40.0218 45.7846 40.0453C45.7898 40.0528 45.7953 40.0598 45.8007 40.067C45.817 40.0888 45.8343 40.1097 45.8532 40.1294C45.8556 40.1318 45.8577 40.1346 45.8601 40.137C45.8819 40.159 45.9058 40.179 45.9307 40.1978C45.9353 40.2013 45.9399 40.2049 45.9446 40.2083C45.97 40.2266 45.9968 40.2433 46.025 40.2581C46.0277 40.2595 46.0305 40.2606 46.0332 40.2619C46.0593 40.2751 46.0868 40.2865 46.1152 40.2963C46.1198 40.2979 46.1243 40.2998 46.1289 40.3013C46.1332 40.3027 46.1371 40.3045 46.1414 40.3057C46.1593 40.311 46.1771 40.3137 46.195 40.3174C46.2075 40.3201 46.2196 40.3237 46.2323 40.3256C46.2659 40.3308 46.2994 40.3338 46.3328 40.3338C46.3661 40.3338 46.3996 40.3308 46.4332 40.3256C46.4459 40.3237 46.4581 40.3202 46.4705 40.3175C46.4884 40.3138 46.5062 40.311 46.5241 40.3058C46.5284 40.3045 46.5324 40.3027 46.5366 40.3013C46.5412 40.2999 46.5457 40.2981 46.5503 40.2964C46.5787 40.2866 46.6061 40.2752 46.6324 40.262C46.635 40.2606 46.6378 40.2595 46.6404 40.2581C46.6687 40.2435 46.6954 40.2267 46.7208 40.2084C46.7256 40.205 46.7301 40.2014 46.7348 40.1979C46.7597 40.179 46.7836 40.159 46.8054 40.137C46.8078 40.1346 46.8099 40.132 46.8122 40.1295C46.8311 40.1099 46.8486 40.0888 46.8649 40.0671C46.8703 40.0599 46.8758 40.0528 46.881 40.0454C46.8971 40.0219 46.9117 39.9974 46.9247 39.9721C46.9289 39.964 46.9327 39.9557 46.9365 39.9474C46.9493 39.9199 46.9608 39.8918 46.9698 39.8628C46.9703 39.8613 46.9711 39.86 46.9714 39.8585L48.9714 33.1919C49.0768 32.8392 48.8768 32.4672 48.5241 32.3619C48.1701 32.2545 47.7994 32.4559 47.6941 32.8085L46.3328 37.3463L44.9714 32.8085C44.9708 32.8064 44.97 32.8045 44.9693 32.8025C44.9689 32.8011 44.9683 32.7998 44.9678 32.7984C44.9212 32.651 44.8281 32.5312 44.7092 32.4502C44.7078 32.4492 44.7066 32.4481 44.7052 32.4473C44.687 32.4351 44.6683 32.4238 44.649 32.4134C44.6485 32.4131 44.6479 32.4129 44.6475 32.4126C44.6286 32.4025 44.6092 32.3934 44.5894 32.3851C44.5861 32.3837 44.5825 32.3827 44.579 32.3813C44.5617 32.3745 44.5441 32.3681 44.5262 32.3626C44.5255 32.3624 44.5249 32.362 44.5242 32.3619C44.5184 32.3602 44.5126 32.3592 44.5069 32.3576C44.4928 32.3538 44.4788 32.3499 44.4644 32.347C44.4486 32.3438 44.4328 32.3417 44.4171 32.3395C44.4124 32.3389 44.4078 32.3381 44.403 32.3375C44.0921 32.3031 43.7944 32.492 43.6976 32.7987C43.6972 32.7999 43.6967 32.8012 43.6963 32.8024C43.6957 32.8045 43.6947 32.8064 43.6941 32.8085L42.3328 37.3463L40.9714 32.8085C40.8661 32.4559 40.4948 32.2565 40.1414 32.3619C39.7888 32.4672 39.5888 32.8392 39.6941 33.1919L41.6941 39.8585C41.6946 39.86 41.6953 39.8613 41.6957 39.8628C41.7047 39.8918 41.7162 39.9199 41.7289 39.9474C41.7328 39.9558 41.7366 39.9641 41.7408 39.9722C41.7539 39.9975 41.7684 40.022 41.7846 40.0454C41.7897 40.0529 41.7953 40.0599 41.8007 40.0672C41.8169 40.0889 41.8343 40.1099 41.8532 40.1295C41.8555 40.132 41.8576 40.1348 41.86 40.1372C41.8818 40.1592 41.9057 40.1792 41.9306 40.198C41.9353 40.2015 41.9398 40.2051 41.9446 40.2085C41.97 40.2267 41.9967 40.2435 42.025 40.2582C42.0276 40.2596 42.0304 40.2607 42.0331 40.262C42.0593 40.2753 42.0867 40.2867 42.1151 40.2965C42.1197 40.2981 42.1242 40.2999 42.1289 40.3014C42.1331 40.3028 42.1371 40.3046 42.1414 40.3059C42.1593 40.3111 42.1771 40.3138 42.1949 40.3176C42.2074 40.3203 42.2196 40.3238 42.2322 40.3258C42.2658 40.331 42.2993 40.3339 42.3327 40.3339C42.3661 40.3339 42.3996 40.331 42.4332 40.3258C42.4458 40.3238 42.458 40.3203 42.4704 40.3177C42.4883 40.3139 42.5061 40.3112 42.524 40.306C42.5283 40.3047 42.5323 40.3028 42.5365 40.3015C42.5411 40.3 42.5457 40.2982 42.5502 40.2966C42.5786 40.2867 42.6061 40.2753 42.6323 40.2621C42.635 40.2608 42.6377 40.2597 42.6403 40.2583C42.6686 40.2436 42.6953 40.2268 42.7207 40.2085C42.7255 40.2052 42.73 40.2016 42.7346 40.1981C42.7596 40.1792 42.7835 40.1592 42.8053 40.1372C42.8076 40.1348 42.8097 40.1321 42.8121 40.1297C42.831 40.11 42.8484 40.089 42.8647 40.0673C42.8704 40.0598 42.8759 40.0528 42.8811 40.0453Z" fill="#EA427F"/>
<path d="M37 17C25.972 17 17 25.972 17 37C17 48.028 25.972 57 37 57C48.028 57 57 48.028 57 37C57 25.972 48.028 17 37 17ZM37 55.6666C26.7073 55.6666 18.3334 47.2927 18.3334 37C18.3334 26.7073 26.7073 18.3334 37 18.3334C47.2927 18.3334 55.6666 26.7073 55.6666 37C55.6666 47.2927 47.2927 55.6666 37 55.6666Z" fill="#EA427F"/>
<path d="M37.6667 21.666C37.6667 21.298 37.3681 21 37.0001 21H36.9994C35.6867 21.0007 34.3701 21.168 33.0841 21.496C32.7274 21.5867 32.5121 21.95 32.6028 22.3073C32.6794 22.6087 32.9507 22.8087 33.2481 22.8087C33.3028 22.8087 33.3581 22.802 33.4134 22.788C34.5927 22.4873 35.7987 22.334 37.0007 22.3333C37.3688 22.3327 37.6667 22.0341 37.6667 21.666Z" fill="#EA427F"/>
<path d="M30.6601 23.7956C30.9915 23.6356 31.1308 23.2369 30.9708 22.9056C30.8115 22.5743 30.4122 22.4349 30.0808 22.5943C26.9375 24.1109 24.3415 26.6263 22.7715 29.6756C22.6028 30.0029 22.7315 30.405 23.0588 30.5736C23.1561 30.6236 23.2608 30.6476 23.3635 30.6476C23.6048 30.6476 23.8388 30.5155 23.9568 30.2862C25.3954 27.4922 27.7761 25.1869 30.6601 23.7956Z" fill="#EA427F"/>
<path d="M22.4073 32.2314C22.0534 32.1334 21.6847 32.34 21.5866 32.6947C21.198 34.0893 21.0007 35.538 21 37C21 37.368 21.298 37.6667 21.6666 37.6667C22.0346 37.6667 22.3333 37.3687 22.3333 37C22.334 35.6587 22.5146 34.3307 22.8706 33.0521C22.9693 32.6974 22.762 32.33 22.4073 32.2314Z" fill="#EA427F"/>
<path d="M40.8184 51.1501C39.5684 51.4922 38.2831 51.6661 36.999 51.6668C36.6311 51.6668 36.333 51.9654 36.333 52.3334C36.333 52.7021 36.6317 53.0001 36.9996 53.0001H37.0004C38.4024 52.9993 39.805 52.8093 41.1696 52.4361C41.525 52.3387 41.7343 51.9721 41.637 51.6174C41.5397 51.2615 41.1697 51.0535 40.8184 51.1501Z" fill="#EA427F"/>
<path d="M51.1891 42.8595C50.8531 42.7034 50.4584 42.8495 50.3038 43.1828C48.9617 46.0641 46.6431 48.4795 43.7751 49.9828C43.4498 50.1541 43.3231 50.5568 43.4944 50.8828C43.6137 51.1102 43.8457 51.2402 44.0857 51.2402C44.1897 51.2402 44.2957 51.2155 44.395 51.1641C47.5197 49.5248 50.0477 46.8908 51.5123 43.7455C51.6677 43.4115 51.5231 43.0155 51.1891 42.8595Z" fill="#EA427F"/>
<path d="M52.3342 36.3335H52.3335C51.9661 36.3335 51.6668 36.6315 51.6668 37.0001C51.6662 38.1394 51.5362 39.2715 51.2795 40.3635C51.1955 40.7222 51.4174 41.0808 51.7768 41.1655C51.8281 41.1776 51.8788 41.1829 51.9295 41.1829C52.2315 41.1829 52.5055 40.9755 52.5781 40.6689C52.8581 39.4762 52.9995 38.2422 53.0002 37.0009C53.0002 36.6322 52.7021 36.3341 52.3342 36.3335Z" fill="#EA427F"/>
<path d="M37.6669 39.6667C37.6669 39.2987 37.3689 39.0001 37.0003 39.0001H35.0003V37.0001H37.0003C37.3689 37.0001 37.6669 36.7014 37.6669 36.3334C37.6669 35.9654 37.3689 35.6668 37.0003 35.6668H35.0003V33.6668H37.0003C37.3689 33.6668 37.6669 33.3681 37.6669 33.0001C37.6669 32.6322 37.3689 32.3335 37.0003 32.3335H34.3336C33.965 32.3335 33.667 32.6322 33.667 33.0001V39.6668C33.667 40.0347 33.965 40.3334 34.3336 40.3334H37.0003C37.3689 40.3334 37.6669 40.0347 37.6669 39.6667Z" fill="#EA427F"/>
</g>
<defs>
<clipPath id="clip0_3263_2979">
<rect width="40" height="40" fill="white" transform="translate(17 17)"/>
</clipPath>
</defs>
</svg>
