<svg width="41" height="40" viewBox="0 0 41 40" fill="none" xmlns="http://www.w3.org/2000/svg">
<rect width="40" height="40" rx="12" fill="#F4F4F4"/>
<path d="M24.167 13.3334H19.167V11.6667H24.167C25.0875 11.6667 25.8337 12.4129 25.8337 13.3334V26.6667C25.8337 27.5872 25.0875 28.3334 24.167 28.3334H15.8337C14.9132 28.3334 14.167 27.5872 14.167 26.6667V21.6667H15.8337V26.6667H24.167V13.3334Z" fill="#EA427F"/>
<path d="M20.8337 24.1667C20.8337 24.627 20.4606 25.0001 20.0003 25.0001C19.5401 25.0001 19.167 24.627 19.167 24.1667C19.167 23.7065 19.5401 23.3334 20.0003 23.3334C20.4606 23.3334 20.8337 23.7065 20.8337 24.1667Z" fill="#EA427F"/>
<path d="M18.9229 16.4227C19.0792 16.2664 19.167 16.0544 19.167 15.8334C19.167 15.6124 19.0792 15.4005 18.9229 15.2442L15.5896 11.9108L14.4111 13.0893L16.3218 15.0001L11.667 15.0001V16.6668L16.3218 16.6668L14.4111 18.5775L15.5896 19.756L18.9229 16.4227Z" fill="#EA427F"/>
</svg>
