<svg width="41" height="40" viewBox="0 0 41 40" fill="none" xmlns="http://www.w3.org/2000/svg">
<rect width="40.2494" height="40" rx="12" fill="#F4F4F4"/>
<path d="M18.3337 19.1667V14.1667H22.5003C24.0003 14.1667 25.0003 15.1667 25.0003 16.6667C25.0003 18.1667 24.0003 19.1667 22.5003 19.1667H18.3337ZM14.167 24.1667H15.8337C16.3337 24.1667 16.667 24.5 16.667 25V27.5H18.3337V25.8333C18.3337 25.0833 17.917 24.5 17.2503 24.25V24.1667H24.167V22.5H18.3337V20.8333H22.5003C24.917 20.8333 26.667 19 26.667 16.6667C26.667 14.25 24.917 12.5 22.5003 12.5H16.667V19.1667H14.167V20.8333H16.667V22.5H14.167V24.1667Z" fill="#EA427F"/>
</svg>
